<mxfile host="app.diagrams.net" agent="Mozilla/5.0 (Macintosh; Intel Mac OS X 10_15_7) AppleWebKit/537.36 (KHTML, like Gecko) Chrome/134.0.0.0 Safari/537.36" version="26.2.8">
  <diagram name="第 1 页" id="-qTaFs6A0QJ2DLadfCvS">
    <mxGraphModel dx="1236" dy="790" grid="0" gridSize="10" guides="1" tooltips="1" connect="1" arrows="1" fold="1" page="1" pageScale="1" pageWidth="827" pageHeight="1169" math="0" shadow="0">
      <root>
        <mxCell id="0" />
        <mxCell id="1" parent="0" />
        <mxCell id="Bbuanxukn7gItg-6cyVJ-4" value="" style="edgeStyle=orthogonalEdgeStyle;rounded=0;orthogonalLoop=1;jettySize=auto;html=1;" parent="1" source="Bbuanxukn7gItg-6cyVJ-2" target="Bbuanxukn7gItg-6cyVJ-3" edge="1">
          <mxGeometry relative="1" as="geometry" />
        </mxCell>
        <mxCell id="Bbuanxukn7gItg-6cyVJ-2" value="&lt;font style=&quot;font-size: 15px;&quot;&gt;reshape&lt;/font&gt;&lt;div&gt;&lt;font style=&quot;font-size: 15px;&quot;&gt;matmul&lt;/font&gt;&lt;/div&gt;&lt;div&gt;&lt;font style=&quot;font-size: 15px; color: rgb(204, 102, 0);&quot;&gt;reshape&lt;/font&gt;&lt;/div&gt;&lt;div&gt;&lt;font style=&quot;font-size: 15px;&quot;&gt;prelu&lt;/font&gt;&lt;/div&gt;" style="ellipse;whiteSpace=wrap;html=1;" parent="1" vertex="1">
          <mxGeometry x="40" y="200" width="150" height="100" as="geometry" />
        </mxCell>
        <mxCell id="Bbuanxukn7gItg-6cyVJ-3" value="&lt;font style=&quot;font-size: 15px; color: rgb(204, 102, 0);&quot;&gt;reshape&lt;/font&gt;&lt;div&gt;&lt;font style=&quot;font-size: 15px;&quot;&gt;matmul&lt;/font&gt;&lt;/div&gt;&lt;div&gt;&lt;font style=&quot;font-size: 15px;&quot;&gt;reshape&lt;/font&gt;&lt;/div&gt;" style="ellipse;whiteSpace=wrap;html=1;" parent="1" vertex="1">
          <mxGeometry x="42.5" y="330" width="145" height="90" as="geometry" />
        </mxCell>
        <mxCell id="Bbuanxukn7gItg-6cyVJ-5" value="" style="edgeStyle=orthogonalEdgeStyle;rounded=0;orthogonalLoop=1;jettySize=auto;html=1;" parent="1" source="Bbuanxukn7gItg-6cyVJ-6" target="Bbuanxukn7gItg-6cyVJ-7" edge="1">
          <mxGeometry relative="1" as="geometry" />
        </mxCell>
        <mxCell id="Bbuanxukn7gItg-6cyVJ-6" value="&lt;font style=&quot;font-size: 15px;&quot;&gt;reshape&lt;/font&gt;&lt;div&gt;&lt;font style=&quot;font-size: 15px;&quot;&gt;matmul&lt;/font&gt;&lt;/div&gt;&lt;div&gt;&lt;font style=&quot;font-size: 15px;&quot;&gt;prelu&lt;/font&gt;&lt;/div&gt;&lt;div&gt;&lt;font style=&quot;font-size: 15px; color: rgb(204, 102, 0);&quot;&gt;reshape&lt;/font&gt;&lt;/div&gt;" style="ellipse;whiteSpace=wrap;html=1;" parent="1" vertex="1">
          <mxGeometry x="230" y="200" width="150" height="100" as="geometry" />
        </mxCell>
        <mxCell id="Bbuanxukn7gItg-6cyVJ-7" value="&lt;font style=&quot;font-size: 15px; color: rgb(204, 102, 0);&quot;&gt;reshape&lt;/font&gt;&lt;div&gt;&lt;font style=&quot;font-size: 15px;&quot;&gt;matmul&lt;/font&gt;&lt;/div&gt;&lt;div&gt;&lt;font style=&quot;font-size: 15px;&quot;&gt;reshape&lt;/font&gt;&lt;/div&gt;" style="ellipse;whiteSpace=wrap;html=1;" parent="1" vertex="1">
          <mxGeometry x="232.5" y="330" width="145" height="90" as="geometry" />
        </mxCell>
        <mxCell id="Bbuanxukn7gItg-6cyVJ-8" value="" style="edgeStyle=orthogonalEdgeStyle;rounded=0;orthogonalLoop=1;jettySize=auto;html=1;" parent="1" source="Bbuanxukn7gItg-6cyVJ-9" target="Bbuanxukn7gItg-6cyVJ-10" edge="1">
          <mxGeometry relative="1" as="geometry" />
        </mxCell>
        <mxCell id="Bbuanxukn7gItg-6cyVJ-9" value="&lt;font style=&quot;font-size: 15px;&quot;&gt;reshape&lt;/font&gt;&lt;div&gt;&lt;font style=&quot;font-size: 15px;&quot;&gt;matmul&lt;/font&gt;&lt;/div&gt;&lt;div&gt;&lt;font style=&quot;font-size: 15px;&quot;&gt;prelu&lt;/font&gt;&lt;/div&gt;" style="ellipse;whiteSpace=wrap;html=1;" parent="1" vertex="1">
          <mxGeometry x="410" y="200" width="150" height="100" as="geometry" />
        </mxCell>
        <mxCell id="Bbuanxukn7gItg-6cyVJ-10" value="&lt;div&gt;&lt;font style=&quot;font-size: 15px;&quot;&gt;matmul&lt;/font&gt;&lt;/div&gt;&lt;div&gt;&lt;font style=&quot;font-size: 15px;&quot;&gt;reshape&lt;/font&gt;&lt;/div&gt;" style="ellipse;whiteSpace=wrap;html=1;" parent="1" vertex="1">
          <mxGeometry x="412.5" y="330" width="145" height="90" as="geometry" />
        </mxCell>
        <mxCell id="Bbuanxukn7gItg-6cyVJ-12" value="&lt;font style=&quot;font-size: 15px;&quot;&gt;reshape&lt;/font&gt;&lt;div&gt;&lt;font style=&quot;font-size: 15px;&quot;&gt;dnn_layer_bottom_whole&lt;/font&gt;&lt;/div&gt;&lt;div&gt;&lt;font style=&quot;font-size: 15px;&quot;&gt;reshape&lt;/font&gt;&lt;/div&gt;" style="ellipse;whiteSpace=wrap;html=1;" parent="1" vertex="1">
          <mxGeometry x="600" y="270" width="200" height="100" as="geometry" />
        </mxCell>
        <mxCell id="Bbuanxukn7gItg-6cyVJ-14" value="" style="edgeStyle=orthogonalEdgeStyle;rounded=0;orthogonalLoop=1;jettySize=auto;html=1;" parent="1" source="Bbuanxukn7gItg-6cyVJ-15" target="Bbuanxukn7gItg-6cyVJ-16" edge="1">
          <mxGeometry relative="1" as="geometry" />
        </mxCell>
        <mxCell id="Bbuanxukn7gItg-6cyVJ-15" value="&lt;div&gt;&lt;font style=&quot;font-size: 15px;&quot;&gt;matmul&lt;/font&gt;&lt;/div&gt;&lt;div&gt;&lt;font style=&quot;font-size: 15px;&quot;&gt;prelu&lt;/font&gt;&lt;/div&gt;" style="ellipse;whiteSpace=wrap;html=1;" parent="1" vertex="1">
          <mxGeometry x="37.5" y="932" width="150" height="60" as="geometry" />
        </mxCell>
        <mxCell id="Bbuanxukn7gItg-6cyVJ-16" value="&lt;font style=&quot;font-size: 15px;&quot;&gt;reshape&lt;/font&gt;&lt;div&gt;&lt;font style=&quot;font-size: 15px;&quot;&gt;matmul&lt;/font&gt;&lt;/div&gt;&lt;div&gt;&lt;font style=&quot;font-size: 15px;&quot;&gt;reshape&lt;/font&gt;&lt;/div&gt;" style="ellipse;whiteSpace=wrap;html=1;" parent="1" vertex="1">
          <mxGeometry x="40" y="1022" width="145" height="90" as="geometry" />
        </mxCell>
        <mxCell id="Bbuanxukn7gItg-6cyVJ-17" value="" style="edgeStyle=orthogonalEdgeStyle;rounded=0;orthogonalLoop=1;jettySize=auto;html=1;" parent="1" source="Bbuanxukn7gItg-6cyVJ-18" target="Bbuanxukn7gItg-6cyVJ-19" edge="1">
          <mxGeometry relative="1" as="geometry" />
        </mxCell>
        <mxCell id="Bbuanxukn7gItg-6cyVJ-18" value="&lt;div&gt;&lt;span style=&quot;font-size: 15px;&quot;&gt;dnn_layer_bottom_half&lt;/span&gt;&lt;/div&gt;" style="ellipse;whiteSpace=wrap;html=1;" parent="1" vertex="1">
          <mxGeometry x="228.75" y="932" width="177.5" height="60" as="geometry" />
        </mxCell>
        <mxCell id="Bbuanxukn7gItg-6cyVJ-19" value="&lt;font style=&quot;font-size: 15px;&quot;&gt;reshape&lt;/font&gt;&lt;div&gt;&lt;font style=&quot;font-size: 15px;&quot;&gt;matmul&lt;/font&gt;&lt;/div&gt;&lt;div&gt;&lt;font style=&quot;font-size: 15px;&quot;&gt;reshape&lt;/font&gt;&lt;/div&gt;" style="ellipse;whiteSpace=wrap;html=1;" parent="1" vertex="1">
          <mxGeometry x="245" y="1022" width="145" height="90" as="geometry" />
        </mxCell>
        <mxCell id="Bbuanxukn7gItg-6cyVJ-20" value="" style="endArrow=classic;html=1;rounded=0;" parent="1" edge="1">
          <mxGeometry width="50" height="50" relative="1" as="geometry">
            <mxPoint x="190" y="320" as="sourcePoint" />
            <mxPoint x="230" y="320" as="targetPoint" />
          </mxGeometry>
        </mxCell>
        <mxCell id="Bbuanxukn7gItg-6cyVJ-21" value="" style="endArrow=classic;html=1;rounded=0;" parent="1" edge="1">
          <mxGeometry width="50" height="50" relative="1" as="geometry">
            <mxPoint x="374" y="319.6" as="sourcePoint" />
            <mxPoint x="414" y="319.6" as="targetPoint" />
          </mxGeometry>
        </mxCell>
        <mxCell id="Bbuanxukn7gItg-6cyVJ-22" value="" style="endArrow=classic;html=1;rounded=0;" parent="1" edge="1">
          <mxGeometry width="50" height="50" relative="1" as="geometry">
            <mxPoint x="550" y="319.6" as="sourcePoint" />
            <mxPoint x="590" y="319.6" as="targetPoint" />
          </mxGeometry>
        </mxCell>
        <mxCell id="Bbuanxukn7gItg-6cyVJ-24" value="" style="endArrow=classic;html=1;rounded=0;" parent="1" edge="1">
          <mxGeometry width="50" height="50" relative="1" as="geometry">
            <mxPoint x="195" y="1021.2" as="sourcePoint" />
            <mxPoint x="235" y="1021.2" as="targetPoint" />
          </mxGeometry>
        </mxCell>
        <mxCell id="Bbuanxukn7gItg-6cyVJ-25" value="&lt;font style=&quot;font-size: 15px;&quot;&gt;原本：&lt;/font&gt;" style="text;html=1;align=center;verticalAlign=middle;whiteSpace=wrap;rounded=0;" parent="1" vertex="1">
          <mxGeometry x="45" y="165" width="60" height="30" as="geometry" />
        </mxCell>
        <mxCell id="Bbuanxukn7gItg-6cyVJ-26" value="&lt;font style=&quot;font-size: 15px;&quot;&gt;更新prelu shape推导：&lt;/font&gt;" style="text;html=1;align=center;verticalAlign=middle;whiteSpace=wrap;rounded=0;" parent="1" vertex="1">
          <mxGeometry x="35" y="902" width="170" height="30" as="geometry" />
        </mxCell>
        <mxCell id="DlDJ56ux1H5ptV9WFV60-1" value="&lt;font style=&quot;font-size: 15px;&quot;&gt;添加shape推导：&lt;/font&gt;" style="text;html=1;align=center;verticalAlign=middle;whiteSpace=wrap;rounded=0;" vertex="1" parent="1">
          <mxGeometry x="40" y="447" width="170" height="30" as="geometry" />
        </mxCell>
        <mxCell id="DlDJ56ux1H5ptV9WFV60-2" value="" style="edgeStyle=orthogonalEdgeStyle;rounded=0;orthogonalLoop=1;jettySize=auto;html=1;" edge="1" parent="1" source="DlDJ56ux1H5ptV9WFV60-3" target="DlDJ56ux1H5ptV9WFV60-4">
          <mxGeometry relative="1" as="geometry" />
        </mxCell>
        <mxCell id="DlDJ56ux1H5ptV9WFV60-3" value="&lt;font style=&quot;font-size: 15px;&quot;&gt;reshape&lt;/font&gt;&lt;div&gt;&lt;font style=&quot;font-size: 15px;&quot;&gt;matmul&lt;/font&gt;&lt;/div&gt;&lt;div&gt;&lt;font style=&quot;font-size: 15px; color: rgb(204, 102, 0);&quot;&gt;reshape&lt;/font&gt;&lt;/div&gt;&lt;div&gt;&lt;font style=&quot;font-size: 15px;&quot;&gt;prelu&lt;/font&gt;&lt;/div&gt;" style="ellipse;whiteSpace=wrap;html=1;" vertex="1" parent="1">
          <mxGeometry x="37.5" y="493" width="150" height="100" as="geometry" />
        </mxCell>
        <mxCell id="DlDJ56ux1H5ptV9WFV60-4" value="&lt;font style=&quot;font-size: 15px; color: rgb(204, 102, 0);&quot;&gt;reshape&lt;/font&gt;&lt;div&gt;&lt;font style=&quot;font-size: 15px;&quot;&gt;matmul&lt;/font&gt;&lt;/div&gt;&lt;div&gt;&lt;font style=&quot;font-size: 15px;&quot;&gt;reshape&lt;/font&gt;&lt;/div&gt;" style="ellipse;whiteSpace=wrap;html=1;" vertex="1" parent="1">
          <mxGeometry x="40" y="623" width="145" height="90" as="geometry" />
        </mxCell>
        <mxCell id="DlDJ56ux1H5ptV9WFV60-5" value="" style="edgeStyle=orthogonalEdgeStyle;rounded=0;orthogonalLoop=1;jettySize=auto;html=1;" edge="1" parent="1" source="DlDJ56ux1H5ptV9WFV60-6" target="DlDJ56ux1H5ptV9WFV60-7">
          <mxGeometry relative="1" as="geometry" />
        </mxCell>
        <mxCell id="DlDJ56ux1H5ptV9WFV60-6" value="&lt;font style=&quot;font-size: 15px;&quot;&gt;reshape&lt;/font&gt;&lt;div&gt;&lt;font style=&quot;font-size: 15px;&quot;&gt;matmul&lt;/font&gt;&lt;/div&gt;&lt;div&gt;&lt;font style=&quot;font-size: 15px;&quot;&gt;prelu&lt;/font&gt;&lt;/div&gt;&lt;div&gt;&lt;font style=&quot;font-size: 15px; color: rgb(204, 102, 0);&quot;&gt;reshape&lt;/font&gt;&lt;/div&gt;" style="ellipse;whiteSpace=wrap;html=1;" vertex="1" parent="1">
          <mxGeometry x="227.5" y="493" width="150" height="100" as="geometry" />
        </mxCell>
        <mxCell id="DlDJ56ux1H5ptV9WFV60-7" value="&lt;div&gt;&lt;font style=&quot;font-size: 15px;&quot;&gt;matmul&lt;/font&gt;&lt;/div&gt;" style="ellipse;whiteSpace=wrap;html=1;" vertex="1" parent="1">
          <mxGeometry x="230" y="623" width="145" height="54" as="geometry" />
        </mxCell>
        <mxCell id="DlDJ56ux1H5ptV9WFV60-8" value="" style="edgeStyle=orthogonalEdgeStyle;rounded=0;orthogonalLoop=1;jettySize=auto;html=1;entryX=0.5;entryY=0;entryDx=0;entryDy=0;" edge="1" parent="1" source="DlDJ56ux1H5ptV9WFV60-9" target="DlDJ56ux1H5ptV9WFV60-13">
          <mxGeometry relative="1" as="geometry">
            <mxPoint x="507.5" y="618" as="targetPoint" />
          </mxGeometry>
        </mxCell>
        <mxCell id="DlDJ56ux1H5ptV9WFV60-9" value="&lt;font style=&quot;font-size: 15px;&quot;&gt;reshape&lt;/font&gt;&lt;div&gt;&lt;span style=&quot;font-size: 15px;&quot;&gt;dnn_layer_bottom_half&lt;/span&gt;&lt;/div&gt;&lt;div&gt;&lt;span style=&quot;color: rgb(204, 102, 0); font-size: 15px;&quot;&gt;reshape&lt;/span&gt;&lt;/div&gt;&lt;div&gt;&lt;div&gt;&lt;span style=&quot;color: rgba(0, 0, 0, 0); font-family: monospace; font-size: 0px; text-align: start; text-wrap-mode: nowrap;&quot;&gt;%3CmxGraphModel%3E%3Croot%3E%3CmxCell%20id%3D%220%22%2F%3E%3CmxCell%20id%3D%221%22%20parent%3D%220%22%2F%3E%3CmxCell%20id%3D%222%22%20value%3D%22%26lt%3Bdiv%26gt%3B%26lt%3Bspan%20style%3D%26quot%3Bfont-size%3A%2015px%3B%26quot%3B%26gt%3Bdnn_layer_bottom_half%26lt%3B%2Fspan%26gt%3B%26lt%3B%2Fdiv%26gt%3B%22%20style%3D%22ellipse%3BwhiteSpace%3Dwrap%3Bhtml%3D1%3B%22%20vertex%3D%221%22%20parent%3D%221%22%3E%3CmxGeometry%20x%3D%22228.75%22%20y%3D%22932%22%20width%3D%22177.5%22%20height%3D%2260%22%20as%3D%22geometry%22%2F%3E%3C%2FmxCell%3E%3C%2Froot%3E%3C%2FmxGraphModel%3E&lt;/span&gt;&lt;/div&gt;&lt;/div&gt;" style="ellipse;whiteSpace=wrap;html=1;" vertex="1" parent="1">
          <mxGeometry x="407.5" y="506" width="204.5" height="87" as="geometry" />
        </mxCell>
        <mxCell id="DlDJ56ux1H5ptV9WFV60-11" value="" style="endArrow=classic;html=1;rounded=0;" edge="1" parent="1">
          <mxGeometry width="50" height="50" relative="1" as="geometry">
            <mxPoint x="187.5" y="613" as="sourcePoint" />
            <mxPoint x="227.5" y="613" as="targetPoint" />
          </mxGeometry>
        </mxCell>
        <mxCell id="DlDJ56ux1H5ptV9WFV60-12" value="" style="endArrow=classic;html=1;rounded=0;" edge="1" parent="1">
          <mxGeometry width="50" height="50" relative="1" as="geometry">
            <mxPoint x="371.5" y="612.6" as="sourcePoint" />
            <mxPoint x="411.5" y="612.6" as="targetPoint" />
          </mxGeometry>
        </mxCell>
        <mxCell id="DlDJ56ux1H5ptV9WFV60-13" value="&lt;div&gt;&lt;font style=&quot;font-size: 15px;&quot;&gt;matmul&lt;/font&gt;&lt;/div&gt;" style="ellipse;whiteSpace=wrap;html=1;" vertex="1" parent="1">
          <mxGeometry x="437.25" y="625" width="145" height="54" as="geometry" />
        </mxCell>
      </root>
    </mxGraphModel>
  </diagram>
</mxfile>
